# xmcd CD database file
#
# Track frame offsets:
#	182
#	31950
#	72547
#	97227
#	135777
#	164140
#	201935
#	239562
#	270595
#
# Disc length: 4022 seconds
#
# Revision: 3
# Processed by: cddbd v1.5.2PL0 Copyright (c) Steve Scherf et al.
# Submitted via: CDex 1.70beta2
#
DISCID=870fb409
DTITLE=THOMAS STABENOW - human spirit
DYEAR=1993
DGENRE=Jazz
TTITLE0=Everything I Love 
TTITLE1=Little Steps
TTITLE2=Come On Up
TTITLE3=Trouble And Bass
TTITLE4=Human Spirit
TTITLE5=Matisse Melismas
TTITLE6=Et Altera Pars
TTITLE7=O Grande Amor
TTITLE8=Tessa’s Blues
EXTD=YEAR: 1993
EXTT0=
EXTT1=
EXTT2=
EXTT3=
EXTT4=
EXTT5=
EXTT6=
EXTT7=
EXTT8=
PLAYORDER=
